<svg xmlns="http://www.w3.org/2000/svg" xmlns:xlink="http://www.w3.org/1999/xlink" width="1110.045" height="2380" viewBox="0 0 1110.045 2380"><defs><linearGradient id="a" x1="0.922" y1="0.878" x2="0.164" y2="0.142" gradientUnits="objectBoundingBox"><stop offset="0" stop-color="#7f21ff" stop-opacity="0.122"/><stop offset="1" stop-color="#7f21ff" stop-opacity="0.02"/></linearGradient><linearGradient id="b" x1="0.117" y1="0.188" x2="0.928" y2="0.836" xlink:href="#a"/><linearGradient id="c" x1="1.022" y1="1.026" x2="0.21" y2="0.188" xlink:href="#a"/></defs><g transform="translate(0 -374)"><g transform="translate(0 374)" fill="#fff" stroke="#707070" stroke-width="1" opacity="0"><rect width="1110" height="2380" stroke="none"/><rect x="0.5" y="0.5" width="1109" height="2379" fill="none"/></g><path d="M1782.355,8128.063c-164.309,117.708-379.462-192.917-531.162-134.679s123.721,352.194,99.649,570.829,431.513,142.39,431.513,142.39Z" transform="translate(-672.31 -6009.156)" fill="url(#a)"/><path d="M0,7694.072c170.113-56.551,314.777-72.019,378.311,34.26s-43.927,294-34.871,362.876,132.108,181.6,154.848,285.552-102.582,154.2-280.051,139.412S0,8392.856,0,8392.856Z" transform="translate(0 -7245.712)" fill="url(#b)"/><path d="M632.411,36.568c94.337,77.211,159.515,186.008,110.346,251.688S530.069,376,435.161,425.631c-94.337,49.636-119.493,126.345-190.389,165.954S57.813,633.7-1.076,584.064c-59.461-49.134-61.748-150.912-60.033-251.688C-59.965,232.1-54.82,132.831,4.069,55.118,63.53-22.093,176.735-77.243,295.085-82.257,414.006-86.77,538.074-40.643,632.411,36.568Z" transform="translate(206.192 1391.561)" fill="url(#c)"/></g></svg>