<svg xmlns="http://www.w3.org/2000/svg" xmlns:xlink="http://www.w3.org/1999/xlink" width="1110.045" height="3284" viewBox="0 0 1110.045 3284"><defs><linearGradient id="a" x1="0.922" y1="0.878" x2="0.164" y2="0.142" gradientUnits="objectBoundingBox"><stop offset="0" stop-color="#7f21ff" stop-opacity="0.122"/><stop offset="1" stop-color="#7f21ff" stop-opacity="0.02"/></linearGradient><linearGradient id="b" x1="0.117" y1="0.188" x2="0.928" y2="0.836" xlink:href="#a"/><linearGradient id="c" x1="1.022" y1="1.026" x2="0.21" y2="0.188" xlink:href="#a"/><linearGradient id="d" x1="0.124" y1="0.061" x2="0.647" y2="0.659" xlink:href="#a"/></defs><g transform="translate(0 -319)"><g transform="translate(0 319)" fill="#fff" stroke="#707070" stroke-width="1" opacity="0"><rect width="1110" height="3284" stroke="none"/><rect x="0.5" y="0.5" width="1109" height="3283" fill="none"/></g><path d="M1850.256,8144.777c-183.644,131.561-424.116-215.618-593.668-150.527s138.28,393.64,111.375,638S1850.256,8791.4,1850.256,8791.4Z" transform="translate(-740.211 -5276.156)" fill="url(#a)"/><path d="M0,7697.188c182.119-60.542,336.993-77.1,405.012,36.678s-47.027,314.746-37.332,388.487,141.432,194.418,165.777,305.706-109.822,165.086-299.816,149.252S0,8445.29,0,8445.29Z" transform="translate(0 -7275.712)" fill="url(#b)"/><path d="M540.081,20.716c81.784,66.937,138.29,161.257,95.663,218.2s-184.386,76.065-266.666,119.1C287.294,401.04,265.485,467.542,204.023,501.88S41.942,538.391-9.111,495.36c-51.549-42.6-53.531-130.831-52.044-218.2C-60.165,190.232-55.7,104.17-4.65,36.8,46.9-30.139,145.039-77.951,247.641-82.3,350.739-86.209,458.3-46.221,540.081,20.716Z" transform="translate(449.444 1409.561)" fill="url(#c)"/><path d="M497.679,7.352c53.3,58.183,74.616,141.237,76.392,217.629,1.332,76.837-16.433,146.567-57.294,191.425C476.36,460.821,413.292,479.919,344.45,521.225S201.437,626.486,125.932,627.374c-75.06.888-151.008-61.292-183.875-138.128-32.867-77.281-23.1-169.662-3.553-256.714S-13.084,63.314,44.21,6.02C101.949-51.274,187.668-84.141,273.388-83.7,358.663-83.7,444.382-50.386,497.679,7.352Z" transform="translate(101.44 2082.496)" fill="url(#d)"/></g></svg>