<svg xmlns="http://www.w3.org/2000/svg" xmlns:xlink="http://www.w3.org/1999/xlink" width="1920" height="1977" viewBox="0 0 1920 1977"><defs><linearGradient id="a" x1="0.922" y1="0.878" x2="0.164" y2="0.142" gradientUnits="objectBoundingBox"><stop offset="0" stop-color="#7f21ff" stop-opacity="0.122"/><stop offset="1" stop-color="#7f21ff" stop-opacity="0.02"/></linearGradient><linearGradient id="b" x1="0.117" y1="0.188" x2="0.928" y2="0.836" xlink:href="#a"/></defs><g transform="translate(0 -1057)"><g transform="translate(0 1057)" fill="#fff" stroke="#707070" stroke-width="1" opacity="0"><rect width="1920" height="1977" stroke="none"/><rect x="0.5" y="0.5" width="1919" height="1976" fill="none"/></g><path d="M1920,8248.615c-203.505,145.787-521.113-167.4-709-95.271s107.616,239.83,77.8,510.621S1920,8878.5,1920,8878.5Z" transform="translate(0 -6122)" fill="url(#a)"/><path d="M0,7722.919c274.744-93.513,573.654-36.081,676.267,139.667s-93.9,332.907-79.273,446.807,245.447,194.739,282.174,366.639S618.93,8990.619,332.305,8966.16,0,8878.45,0,8878.45Z" transform="translate(0 -6521)" fill="url(#b)"/></g></svg>