<svg xmlns="http://www.w3.org/2000/svg" xmlns:xlink="http://www.w3.org/1999/xlink" width="714.311" height="447.578" viewBox="0 0 714.311 447.578"><defs><linearGradient id="a" x1="1.033" y1="0.88" x2="-1.924" y2="0.64" gradientUnits="objectBoundingBox"><stop offset="0" stop-opacity="0"/><stop offset="0.91" stop-opacity="0.8"/><stop offset="1"/></linearGradient><linearGradient id="b" x1="0.369" y1="0.618" x2="1.314" y2="0.258" xlink:href="#a"/><linearGradient id="c" x1="0.102" y1="8.609" x2="1.106" y2="8.609" gradientUnits="objectBoundingBox"><stop offset="0" stop-color="#ecc4d7"/><stop offset="0.42" stop-color="#efd4d1"/><stop offset="1" stop-color="#f2eac9"/></linearGradient><linearGradient id="d" x1="0.795" y1="12.308" x2="-1.351" y2="14.828" xlink:href="#c"/><linearGradient id="e" x1="0.05" y1="5.887" x2="1.05" y2="5.887" xlink:href="#c"/><linearGradient id="f" x1="-0.014" y1="13.316" x2="0.652" y2="12.94" xlink:href="#c"/><linearGradient id="g" x1="0.217" y1="0.013" x2="1.347" y2="1.114" xlink:href="#a"/><linearGradient id="h" x1="0.598" y1="4.786" x2="0.85" y2="4.84" xlink:href="#c"/><linearGradient id="i" x1="0.669" y1="24.11" x2="-0.138" y2="28.474" xlink:href="#c"/><linearGradient id="j" x1="0.616" y1="40.854" x2="0.333" y2="43.489" xlink:href="#c"/><linearGradient id="k" x1="0.064" y1="13.32" x2="1.064" y2="13.32" xlink:href="#c"/><linearGradient id="l" x1="0.509" y1="2.571" x2="0.459" y2="-0.821" xlink:href="#a"/><linearGradient id="m" x1="0.509" y1="2.719" x2="0.376" y2="-0.989" xlink:href="#a"/><linearGradient id="n" x1="0.548" y1="8.539" x2="0.416" y2="6.841" gradientUnits="objectBoundingBox"><stop offset="0" stop-opacity="0"/><stop offset="0.44" stop-opacity="0.349"/><stop offset="0.91" stop-opacity="0.8"/><stop offset="1"/></linearGradient><linearGradient id="o" x1="0.673" y1="1.691" x2="1.435" y2="1.562" xlink:href="#a"/><linearGradient id="p" x1="0.479" y1="1.722" x2="0.056" y2="1.717" xlink:href="#a"/><linearGradient id="q" x1="1.722" y1="0.171" x2="-1.08" y2="1.101" gradientUnits="objectBoundingBox"><stop offset="0" stop-color="#fff" stop-opacity="0"/><stop offset="1" stop-color="#3f3d56"/></linearGradient><linearGradient id="r" x1="0.504" y1="-1.641" x2="0.14" y2="-0.072" xlink:href="#a"/><linearGradient id="s" x1="-31.203" y1="1.881" x2="17.904" y2="4.163" gradientUnits="objectBoundingBox"><stop offset="0.17" stop-color="#00272e"/><stop offset="1" stop-color="#69b9eb" stop-opacity="0"/></linearGradient><linearGradient id="t" y1="809.279" x2="1" y2="809.279" gradientUnits="objectBoundingBox"><stop offset="0" stop-color="#68e1fd"/><stop offset="1" stop-color="#69b9eb"/></linearGradient><linearGradient id="u" x1="1.179" y1="13.43" x2="0.121" y2="14.215" xlink:href="#a"/><linearGradient id="v" x1="1.04" y1="17.356" x2="0.15" y2="18.723" xlink:href="#a"/><linearGradient id="w" x1="0.078" y1="17.459" x2="0.795" y2="18.7" xlink:href="#a"/><linearGradient id="x" x1="-0.2" y1="17.368" x2="1.196" y2="18.988" xlink:href="#a"/></defs><g transform="translate(0 0.004)"><path d="M714.3,317.4a101.3,101.3,0,0,1-10.4,39.832c-10.04,19.942-25.664,36.234-44.158,48.832a178.34,178.34,0,0,1-32.878,17.54,199.621,199.621,0,0,1-19.422,6.8c-39.884,11.67-81.97,12.243-123.484,12.728l-292.175,3.4h0l-38.427.442c-12.225.147-24.685.234-37.014-.442-23.523-1.266-46.612-5.28-66.857-16.838A89.019,89.019,0,0,1,22.7,406.06C8.977,387.948,1.555,364.85,1.2,341.83v-2.419c.147-22.465,7.084-44.618,21.5-61.915.919-1.092,1.855-2.176,2.835-3.225,2.038-2.2,4.266-4.335,6.607-6.468,14.9-13.448,34.586-25.5,43.508-42.823,15.693-30.485-3.876-42.927-6.451-72.831C64.867,101.859,115.779,44.071,157.137,21,201.608-3.868,257.618-6.85,304.491,13.1c49.595,21.121,95.877,67.118,148.194,54.147,16.821-4.17,32.271-14.436,49.6-14.74,32.028-.616,54.259,31.959,64.23,62.427s15.381,64.855,39.086,86.418c17.011,15.468,40.465,21.286,61.066,31.56a100.388,100.388,0,0,1,17.679,10.968c12.139,9.589,20.479,22.6,25.283,37.066A99.137,99.137,0,0,1,714.3,317.4Z" transform="translate(-0.16 0)" fill="#7f21ff" opacity="0.18" style="isolation:isolate"/><path d="M663.248,468.66a186.413,186.413,0,0,1-52.3,24.329c-37.283,10.916-76.482,12.139-115.316,12.624l-8.142.1-107.27,1.257-54.485.642-121.273,1.413-9.2.1h0l-38.436.451c-12.225.147-24.676.225-37.014-.451-23.549-1.231-46.638-5.246-66.9-16.769a88.941,88.941,0,0,1-26.653-23.67Z" transform="translate(-3.492 -62.314)" fill="#7f21ff" opacity="0.18" style="isolation:isolate"/><path d="M623.8,488.683c.251,3.616-2.315,7.11-1.587,10.656,1.075,5.2,7.014,4.335,12.338,3.945,12.936-1.058,29.479-3.035,42.077-6.286,11.662-3.017,20.15-5.931,31.266-9.537.867-.286.6-2.749.642-3.659.069-1.205-1.526-1.656-2.731-1.734-10.994-.355-22.11,0-32.9-2.168-4.847-.988-9.6-2.5-14.514-3.061-6.069-.685-12.139.061-18.208-.4-4.4-.338-15.1-5.15-19.188-3.173C614.883,476.293,623.5,484.313,623.8,488.683Z" transform="translate(-82.277 -62.863)" fill="#000405" opacity="0.05" style="isolation:isolate"/><path d="M317.422,494.6c12.7,3.564,22.977,11.107,34.161,16.951q-60.641.694-121.273,1.4a55.394,55.394,0,0,1,11.272-8.306c13.292-7.439,28.907-9.156,44.046-10.734C296.205,492.8,307.138,491.719,317.422,494.6Z" transform="translate(-30.622 -65.517)" fill="#000405" opacity="0.05" style="isolation:isolate"/><path d="M550.545,504.331a6.407,6.407,0,0,1-1.439,3.139,5.713,5.713,0,0,0-.676,1.127l-8.142.1L433,509.932a31.8,31.8,0,0,0,5.254-5.159c2.237-2.775,4.023-5.922,6.624-8.332,7.682-7.127,19.847-5.8,29.8-2.6,3.026.988,6.069,2.116,9.26,2.072,5.653-.069,10.509-3.746,15.607-6.277,16.014-7.994,37.213-3.711,48.866,9.876C549.556,500.915,550.692,502.545,550.545,504.331Z" transform="translate(-57.572 -64.569)" fill="#000405" opacity="0.05" style="isolation:isolate"/><path d="M497.25,355.864l-19.829,97.551-13.326-1.526-1.535-.182s3.815-28.907,5.462-70.135c1.084-27.312,5.757-49.612,7.994-68.149a84.389,84.389,0,0,1,3.468-15.034c2.705-8.2,6.824-15.876,12.06-15.086,11.566,1.734,26.8,11.731,28.812,17.991C523.86,312.217,497.25,355.864,497.25,355.864Z" transform="translate(-61.502 -37.661)" fill="#25233a"/><path d="M483.382,300.958s-8.887,68.852-9.173,90.328-9.121,62.739-9.121,62.739l-1.023.182-1.535-.182s3.815-28.907,5.462-70.135c1.084-27.312,5.757-49.612,7.994-68.149a84.4,84.4,0,0,1,3.468-15.034,17.012,17.012,0,0,1,3.928.252Z" transform="translate(-61.498 -39.979)" fill="#fff" opacity="0.24" style="isolation:isolate"/><path d="M547.821,454.051h-14.74v-.087c-.4-1.986-7.8-38.661-18.268-65.227-7.8-19.812-11.575-60.164-13.006-80.817-.572-7.8-.8-12.8-.8-12.8s29.93-8.835,33.815-4.916,8.3,21.676,8.3,21.676-10.248,70.317-3.728,75.086S547.821,454.051,547.821,454.051Z" transform="translate(-66.614 -38.453)" fill="#3f3d56"/><path d="M281.252,155.19s-21.8,6.72-30.624,69.632c-3.191,22.682,17.1,62.748,17.1,62.748Z" transform="translate(-33.278 -20.635)" fill="#7f21ff"/><path d="M281.252,155.19s-21.8,6.72-30.624,69.632c-3.191,22.682,17.1,62.748,17.1,62.748Z" transform="translate(-33.278 -20.635)" fill="url(#a)"/><path d="M266.122,298.793a8.523,8.523,0,0,0-9.78,9.815c1.665,9.832,4.838,23.479,10.4,31.213,9.4,12.945,22.231,30.806,22.231,30.806l13.266,91.039,16.361-2.211-.147-87.242-18.468-67.829Z" transform="translate(-34.068 -39.713)" fill="#25233a"/><path d="M298.621,304.121,296.5,379.9l-35.072,81.562-11.748-4.968-3.416-1.465,19.422-76.473s-7.561-20.809-13.127-35.982c-5.341-14.558,1.925-43.4,2.532-45.728v-.156Z" transform="translate(-32.743 -39.448)" fill="#3f3d56"/><path d="M465.957,238.151,422.683,259.6,414.6,249.31h0l-2.072-2.653L449.5,226.567s12.7-28.24,15.459-41.219c.529-2.41,1.058-4.335,1.552-5.991.962-3.009,10.144-13.639,13.231-14.271s-.39,8.852,1.665,11.272a19.075,19.075,0,0,1,3.295,11.272C485.058,195.692,465.957,238.151,465.957,238.151Z" transform="translate(-54.85 -21.946)" fill="#7f21ff"/><path d="M531.009,263.016s-21.494,25.829-46.274,19.682a33.82,33.82,0,0,1-4.994-1.682,8.67,8.67,0,0,1-4.543-11.358v-.052c2.393-5.428,2.462-13.274,2.246-20.514-.5-16.656-4.717-34.682-5.029-42.181a80.9,80.9,0,0,1,1.977-18.364c2.488-12.052,6.936-24.06,11.54-24.754,13.561-2.09,18.208,1.6,18.208,1.6l23.15,13.448C538.813,190.861,533.212,209.728,531.009,263.016Z" transform="translate(-62.808 -21.693)" fill="#7f21ff"/><path d="M498.687,194.213l5.922,9.537-16.4,16.586-3.373,3.416,17.818-60.389.069-6.043,2.263,2.315v.009l2.965,3.035,1.136,25.005Z" transform="translate(-64.464 -20.918)" fill="#7f21ff"/><path d="M530.8,216.3l-2.514,65.106s-35.375,16.812-40.049-2.081c-3.616-14.6,5.636-31.257,5.636-31.257Z" transform="translate(-64.805 -28.76)" fill="url(#b)"/><path d="M495.649,257.94,485.01,300.78l65.739,13.491,9.451-41.913Z" transform="translate(-64.487 -34.296)" fill="#fff"/><path d="M503.167,146.3c0,.191-.234,9.893-.572,16.066-.243,4.777-2.48,8.142-5.9,11.471a21.094,21.094,0,0,1-7.014,4.838,3.72,3.72,0,0,1-4.769-2.194h0a3.78,3.78,0,0,1-.1-2.254c.338-1.283.676-2.775.936-4.335.555-3.217.8-6.7-.078-9.165a2.426,2.426,0,0,0-.087-.269c-.52-1.275,0-2.662,1.179-4.058a29.958,29.958,0,0,1,7.439-5.644,87.79,87.79,0,0,1,8.957-4.457Z" transform="translate(-64.445 -19.453)" fill="url(#c)"/><path d="M487.8,169.54a8.02,8.02,0,0,1-1.873.659c.555-3.217.8-6.7-.078-9.165l1.092-4.335.824-3.225,6.616-2.419,6.7-2.445C499.471,160.54,493.09,167.035,487.8,169.54Z" transform="translate(-64.599 -19.76)" fill="url(#d)"/><path d="M483.254,107.2a19.075,19.075,0,0,0-17.87,20.211h0a10.493,10.493,0,0,0,.147,1.465,64.421,64.421,0,0,0,5.913,22.37c6.234,10.578,21.893,1.821,24.364-2.549s11.792-24.138,7.855-29.748C501.063,115.044,493.416,106.729,483.254,107.2Z" transform="translate(-61.873 -14.251)" fill="url(#e)"/><path d="M465.138,98.049l3.225,1.647a12.139,12.139,0,0,0-9.945,4.838,15.893,15.893,0,0,0-4.639,11.124l5.471-2.6s-.408,6.754,9.962,7.248,21.347.867,21.347.867l-3.52-4.864s6.451,2.6,7.578,4.951a78.028,78.028,0,0,1,2.22,11.636s2.558-6.668,3.624-5.2-1.11,7.5-2.454,8.826-1.118,5.3-1.24,5.627,6.425-5.124,6.711-7,6.772-20.809,2.514-24.763l2.6-.2a12.138,12.138,0,0,0-5.09-1.96S486.424,85.962,465.138,98.049Z" transform="translate(-60.335 -12.559)" fill="#3f3d56"/><path d="M388.846,268.169a50.873,50.873,0,0,1,9.251-6.425,30.485,30.485,0,0,1,8.055-1.665s.451,3.789-1.734,4.04-4.006,3.572-4.006,3.572,14.02,5.74,15.954,5.2,1.552,2.254-1.994,2.072-4.413,4.777-6.867,4.708-6.338,1.448-9.945,1.578a37.44,37.44,0,0,1-10.63-2.48Z" transform="translate(-51.446 -34.581)" fill="url(#f)"/><path d="M316.269,213.99l-11.757,66.086s-4.058,12.65-25.057,10.76a33.624,33.624,0,0,1-20.471-9.217h0l-.338-.321-.234-.243a40.8,40.8,0,0,1-9.251-14.011s13.491-93.233,27.659-109.412c1.413-1.613,2.827-2.471,4.249-2.393a25.058,25.058,0,0,1,10.821,4.127A53.011,53.011,0,0,1,316.269,213.99Z" transform="translate(-33.128 -20.64)" fill="#7f21ff"/><path d="M298.81,220.45,284.07,299.5s22.586,3.1,25.057-10.751l6.936-40.2Z" transform="translate(-37.77 -29.312)" fill="url(#g)"/><path d="M286,147.187s2.246-17,3.147-28.057,4.509-25.864,23.063-23.965,18.615,29.948,13.491,41.687-11.956,11.4-11.956,11.4-9.243-2.012-8.9,9.1Z" transform="translate(-38.027 -12.632)" fill="url(#h)"/><path d="M292.752,91.725a20.809,20.809,0,0,0-5.644,9.485,49.891,49.891,0,0,0-1.682,8.957l1.89-2.072a138.531,138.531,0,0,1-1.153,15.511,84.261,84.261,0,0,0-.867,14.48l3.468-.173,4.335,5.324,4.786-3.243,3.624-1.864,3.208-7.925a4.457,4.457,0,0,1-1.561-5.2c1.179-3.234,4.11-3.98,4.795-2.072a37.543,37.543,0,0,1,.867,7.231l5.116-14.488s3.208-4.5,6.017-1.4a14.991,14.991,0,0,0,6.191,4.127l-1.734-4.786,4.639,1.188-.364-5.532,3.468,2.419s1.517-8.957-1.422-12.928S316.1,78.876,292.752,91.725Z" transform="translate(-37.929 -11.542)" fill="#3f3d56"/><path d="M376.523,255.553l-2.35,12.416-.633,3.338-42.32-3.156c-11.714-1.006-23.211-9.017-24.667-20.731l-14.644-51.7a13.127,13.127,0,0,1,14.445-16.89,15.078,15.078,0,0,1,12.139,10.344l9.217,46.274a14.436,14.436,0,0,0,10.864,11.272Z" transform="translate(-38.733 -23.759)" fill="#7f21ff"/><path d="M412.285,262.22l-5.9,1.838s-7.37.659-9.824,2.757-1.084,3.043-1.084,3.043,7.8-1.145,9.485-.494,9.91,3.919,12.511,3.876,2.887-.72,2.887-.72Z" transform="translate(-52.532 -34.865)" fill="url(#i)"/><path d="M394.1,279.815a3.728,3.728,0,0,1,3.234-.867.633.633,0,0,1,.338.173.737.737,0,0,1,0,.685,11.662,11.662,0,0,1-1.838,3.668c.919-.312,1.344-1.335,1.925-2.107a4.856,4.856,0,0,1,3.728-1.925.867.867,0,0,1,.5.1c.355.243.2.8,0,1.188-.364.728-.72,1.465-1.084,2.2a21.884,21.884,0,0,1,3.173-3.642,2.385,2.385,0,0,1,1.04-.65.867.867,0,0,1,1.04.46,1.11,1.11,0,0,1,0,.711,8.028,8.028,0,0,1-1.3,2.783,13.449,13.449,0,0,1,2.723-3.217.719.719,0,0,1,.624-.251.529.529,0,0,1,.3.26c.364.607,0,1.379-.382,1.986-.7,1.118-1.6,2.315-2.9,2.514a3.64,3.64,0,0,0-.867.156,3.022,3.022,0,0,0-.564.373,2.809,2.809,0,0,1-3.078.069,3.832,3.832,0,0,1-4.214-.069.867.867,0,0,0-1.04-.078,2.879,2.879,0,0,1-3.191-.945C391.49,282.286,393.241,280.56,394.1,279.815Z" transform="translate(-52.13 -37.044)" fill="url(#j)"/><path d="M537.691,288.144l-14.48-5-.494-.173,10.552-33.919S519.4,210.9,517.09,199.221a32.724,32.724,0,0,1-.1-11.766,10.17,10.17,0,0,1,7.977-8.28,9.849,9.849,0,0,1,6.641.867,43.636,43.636,0,0,1,5.2,3.173,6.937,6.937,0,0,1,2.662,3.971c2.6,10.682,13.066,54.259,13.456,58.4C553.35,250.324,537.691,288.144,537.691,288.144Z" transform="translate(-68.674 -23.793)" fill="#7f21ff"/><path d="M518.321,302.008c-.711.676-1.387,1.89-.633,2.532.182.156.434.243.581.434.364.46-.087,1.1-.5,1.509l-3.468,3.373c-1.283,1.24-2.679,2.792-2.384,4.552a3.581,3.581,0,0,0,2.514,2.644,7.205,7.205,0,0,0,3.789-.043,1.864,1.864,0,0,0,1.032,1.777,5.626,5.626,0,0,0,2.116.52,15.781,15.781,0,0,0,6.373-.173c.156.234.312.46.477.685,2.74-.486,4.231-3.416,5.2-6.017s1.96-5.5,2.792-8.3a1.864,1.864,0,0,0,.078-1.188,1.907,1.907,0,0,0-1.231-.928c-3.312-1.257-6.616-2.54-9.936-3.78C522.05,298.462,520.654,299.832,518.321,302.008Z" transform="translate(-68.059 -39.781)" fill="url(#k)"/><path d="M498.687,194.213l5.922,9.537-16.4,16.586-3.373,3.416,17.818-60.389.069-6.043,2.263,2.315v.009l2.965,3.035,1.136,25.005Z" transform="translate(-64.464 -20.918)" fill="#7f21ff"/><path d="M485.6,173.15l-2.211,10.4,1.257,41.982L500.8,170.8l-6.936,4.387c-.373.234-.754.451-1.153.65a5.133,5.133,0,0,1-6.893-2.28h0c-.069-.139-.13-.277-.191-.425Z" transform="translate(-64.271 -22.71)" fill="#fff"/><path d="M484.722,163.84l-7.205,13.5,2.393,5.636L476,191.429l7.639,33.182s-2.09-40.56.954-52.4C484.618,172.224,485.624,166.58,484.722,163.84Z" transform="translate(-63.289 -21.785)" fill="#7f21ff"/><path d="M498.687,194.213l5.922,9.537-16.4,16.586-3.373,3.416,17.818-60.389.069-6.043,2.263,2.315v.009l2.965,3.035,1.136,25.005Z" transform="translate(-64.464 -20.918)" fill="url(#l)"/><path d="M484.722,163.84l-7.205,13.5,2.393,5.636L476,191.429l7.639,33.182s-2.09-40.56.954-52.4C484.618,172.224,485.624,166.58,484.722,163.84Z" transform="translate(-63.289 -21.785)" fill="url(#m)"/><path d="M284.756,151.91,306.042,162.5l5.757,11.159L281.08,157.13Z" transform="translate(-37.372 -20.198)" fill="#7f21ff"/><path d="M284.756,151.91,306.042,162.5l5.757,11.159L281.08,157.13Z" transform="translate(-37.372 -20.198)" fill="url(#n)"/><path d="M190.489,321.21V490.283H171.873v-76.7H3.962A113.392,113.392,0,0,1,0,385.553V383.16c.147-22.456,7.075-44.67,21.511-61.915Z" transform="translate(0 -42.709)" fill="#7f21ff"/><path d="M213.651,310v9.694H24.81c.91-1.092,1.855-2.176,2.827-3.225,2.046-2.2,4.266-4.335,6.616-6.468Z" transform="translate(-3.299 -41.218)" fill="#7f21ff"/><path d="M121.906,240.641c-2.133-2.046-4.682-3.607-6.936-5.48-.8-.659-1.639-1.543-1.483-2.6a2.168,2.168,0,0,1,1.734-1.621,6.52,6.52,0,0,1,2.523.156l-4.855-5.462c-.451-.512-.936-1.214-.607-1.812s1.257-.564,1.9-.26a4.084,4.084,0,0,0,1.96.7c-1.734-2.436-3.936-4.422-5.783-6.737s-3.329-5.2-3.052-8.115a1.89,1.89,0,0,1,.425-1.162c.555-.555,1.491-.321,2.211,0a22.543,22.543,0,0,1,11.558,11.41,20.731,20.731,0,0,1-.954-7.708,2.064,2.064,0,0,1,.659-1.63c.867-.6,2.012.434,2.514,1.4,3.416,6.65,1.032,14.74,2.428,22.1a8.081,8.081,0,0,1,2.67-5.315,38.149,38.149,0,0,1-.433,11.367c1.066.468.98,1.994.711,3.139q-.52,2.6-1.3,5.2c-1.907-.156-1.942-1.2-2.54-2.731a13.786,13.786,0,0,0-3.347-4.838Z" transform="translate(-14.263 -27.645)" fill="#7f21ff"/><path d="M140.276,218.826c1.795-2.038,3.945-3.971,6.607-4.526.806,1.552,0,3.468-1.118,4.829s-2.506,2.6-3.069,4.214a17.09,17.09,0,0,1,8.974-5.61,5.055,5.055,0,0,1,3.8.217,1.448,1.448,0,0,1,.711.867c.208.954-1.006,1.526-1.96,1.734a29.9,29.9,0,0,0-16.621,11.4,20.922,20.922,0,0,1,13.188-2.887c.8.1,1.734.338,2.029,1.075.46,1.092-.78,2.133-1.907,2.506-4.335,1.439-9.763-.1-13.266,2.87a7.457,7.457,0,0,1,5.324,1.474c1.223.928,2.124,2.827,1.049,3.919a3.147,3.147,0,0,1-2.6.59c-2.506-.217-5.592-.633-7.032,1.431-.789,1.136-.728,2.6-1.023,3.988-.234,1.1-1.145,3.052-2.341,1.977-.8-.72-.486-3.234-.486-4.188a39.884,39.884,0,0,1,9.728-25.855Z" transform="translate(-17.347 -28.494)" fill="#7f21ff"/><path d="M121.906,240.641c-2.133-2.046-4.682-3.607-6.936-5.48-.8-.659-1.639-1.543-1.483-2.6a2.168,2.168,0,0,1,1.734-1.621,6.52,6.52,0,0,1,2.523.156l-4.855-5.462c-.451-.512-.936-1.214-.607-1.812s1.257-.564,1.9-.26a4.084,4.084,0,0,0,1.96.7c-1.734-2.436-3.936-4.422-5.783-6.737s-3.329-5.2-3.052-8.115a1.89,1.89,0,0,1,.425-1.162c.555-.555,1.491-.321,2.211,0a22.543,22.543,0,0,1,11.558,11.41,20.731,20.731,0,0,1-.954-7.708,2.064,2.064,0,0,1,.659-1.63c.867-.6,2.012.434,2.514,1.4,3.416,6.65,1.032,14.74,2.428,22.1a8.081,8.081,0,0,1,2.67-5.315,38.149,38.149,0,0,1-.433,11.367c1.066.468.98,1.994.711,3.139q-.52,2.6-1.3,5.2c-1.907-.156-1.942-1.2-2.54-2.731a13.786,13.786,0,0,0-3.347-4.838Z" transform="translate(-14.263 -27.645)" fill="url(#o)"/><path d="M140.276,218.826c1.795-2.038,3.945-3.971,6.607-4.526.806,1.552,0,3.468-1.118,4.829s-2.506,2.6-3.069,4.214a17.09,17.09,0,0,1,8.974-5.61,5.055,5.055,0,0,1,3.8.217,1.448,1.448,0,0,1,.711.867c.208.954-1.006,1.526-1.96,1.734a29.9,29.9,0,0,0-16.621,11.4,20.922,20.922,0,0,1,13.188-2.887c.8.1,1.734.338,2.029,1.075.46,1.092-.78,2.133-1.907,2.506-4.335,1.439-9.763-.1-13.266,2.87a7.457,7.457,0,0,1,5.324,1.474c1.223.928,2.124,2.827,1.049,3.919a3.147,3.147,0,0,1-2.6.59c-2.506-.217-5.592-.633-7.032,1.431-.789,1.136-.728,2.6-1.023,3.988-.234,1.1-1.145,3.052-2.341,1.977-.8-.72-.486-3.234-.486-4.188a39.884,39.884,0,0,1,9.728-25.855Z" transform="translate(-17.347 -28.494)" fill="url(#p)"/><path d="M139.505,302.321l-9.919.052h-9.815c-21.589-12.8,3.364-38.826,3.364-38.826s.988-4.058-.3-6.616a3.624,3.624,0,0,0-1.344-1.5c-3.182-1.907,1.257-2.662,1.257-2.662h13.318s4.561.382,1.136,2.783-1.517,7.994-1.517,7.994C162.326,293.174,139.505,302.321,139.505,302.321Z" transform="translate(-14.755 -33.609)" fill="#fff"/><path d="M130.306,302.229a6.791,6.791,0,0,1-.72.78h-9.815c-21.589-12.8,3.364-38.826,3.364-38.826s.988-4.058-.3-6.616c4.335-.329,6.425,5.263,5.844,8.818-.442,2.74-.867,5.488-1.344,8.228a24.824,24.824,0,0,0-.434,7.8c.538,3.468,2.514,6.529,3.806,9.789S132.465,299.455,130.306,302.229Z" transform="translate(-14.755 -34.245)" opacity="0.51" fill="url(#q)" style="isolation:isolate"/><path d="M190.489,321.21l-97,27.563A125.938,125.938,0,0,0,15.26,413.584H3.988A113.418,113.418,0,0,1,0,385.553V383.16c.147-22.456,7.075-44.67,21.511-61.915Z" transform="translate(0 -42.709)" fill="url(#r)"/><rect width="8.896" height="76.56" transform="translate(171.873 370.876)" opacity="0.61" fill="url(#s)" style="isolation:isolate"/><path d="M795.018,354.233a101.443,101.443,0,0,1-10.4,39.832,114.554,114.554,0,0,1-7.717,13.084c-9.607,14.115-22.17,26.011-36.416,35.757A178.814,178.814,0,0,1,707.6,460.436l-22.985-4.24-44.054-8.124c-2.159-.4-4.249-.65-6.225-.867-8.124-.919-14.445-1.37-16.829-9.615-2.957-10.153,0-25.69,0-36.338,0-18.5,1.933-40.534,18.043-49.621,13.37-7.526,30.346-2.211,45.268-5.7a8.584,8.584,0,0,0,3.936-1.734c1.734-1.6,2-4.205,2.046-6.564.373-17.9-5.61-37.985,5.09-52.343,8.185-10.977,23.159-14,36.789-15.269a122.756,122.756,0,0,1,12.624-.546q3.069,0,6.13.26c14.124,1.092,27.581,5.627,34.76,17.254,3.841,6.208,5.2,13.578,6.485,20.766.581,3.321,1.162,6.668,1.734,10.014C792.321,329.756,794.055,342.025,795.018,354.233Z" transform="translate(-81.929 -35.83)" fill="#3f3d56"/><path d="M797.78,354.232a101.443,101.443,0,0,1-10.4,39.832,114.554,114.554,0,0,1-7.717,13.084c-5.28,2.246-11.636,2.22-17.523,2.306a197.151,197.151,0,0,0-27.667,2.376c-4.11.642-8.393,1.5-11.618,4.136-4.257,3.468-5.731,9.39-5.965,14.9s.5,11.081-.434,16.517a10.578,10.578,0,0,1-2.02,5.055c-2.211,2.662-6.069,3.139-9.537,3.355q-8.792.529-17.592.434a241.15,241.15,0,0,1-43.933-4.613c-2.506-.5-5.428-1.4-6.225-3.832a3.016,3.016,0,0,1-.121-.555,8.385,8.385,0,0,1,.312-3.407l7.933-33.962c1.075-4.613,2.185-9.312,4.639-13.361,4.89-8.107,14.185-12.251,22.9-15.919l23.462-9.893c6.416-2.688,10.777-3.035,10.205-10.587-1.257-16.7-4.76-32.948-4.76-49.8,0-4.838.225-9.841,2.306-14.193s5.818-7.665,9.659-10.578a112.2,112.2,0,0,1,30.3-16.049q3.069,0,6.13.26c14.124,1.092,27.581,5.627,34.76,17.254,3.841,6.208,5.2,13.578,6.485,20.766.581,3.321,1.162,6.668,1.734,10.014,1.257,7.6,2.41,15.286,3.338,22.985C796.965,345.223,797.4,349.7,797.78,354.232Z" transform="translate(-84.691 -35.829)" fill="#25233a"/><path d="M810.95,365.16a101.443,101.443,0,0,1-10.4,39.832,114.554,114.554,0,0,1-7.717,13.084c-5.28,2.246-11.636,2.22-17.523,2.306a197.151,197.151,0,0,0-27.667,2.376c-4.11.642-8.393,1.5-11.618,4.136,0,0,5.384-29.757,27.346-39.78S809.6,351.66,809.6,351.66C810.135,356.151,810.568,360.625,810.95,365.16Z" transform="translate(-97.861 -46.757)" fill="#3f3d56"/><path d="M266.477,296.259c-.121-.1-.234-.217-.347-.329l.078.069A1.535,1.535,0,0,1,266.477,296.259Z" transform="translate(-35.385 -39.347)" fill="url(#t)"/><path d="M254.687,264.119s1.257,13.951,4.483,17.5a41.7,41.7,0,0,1-9.459-14.332s12.737-92.773,27.182-109.334l4.335,2.3Z" transform="translate(-33.201 -21.002)" fill="#fff" opacity="0.24" style="isolation:isolate"/><path d="M464.43,193.66l.2,9.537-12.451,31.343-38.046,19.942h0L412,251.752l37.812-20.514S461.612,206.96,464.43,193.66Z" transform="translate(-54.779 -25.75)" fill="#fff" opacity="0.24" style="isolation:isolate"/><path d="M374.831,267.025l-.642,3.416-43.283-3.225c-11.983-1.032-23.74-9.225-25.231-21.2l-14.939-52.889a13.491,13.491,0,0,1,2.6-12.737s13.951,65.462,19.075,71.323,14.887,9.373,14.887,9.373Z" transform="translate(-38.576 -23.985)" fill="#fff" opacity="0.24" style="isolation:isolate"/><path d="M272.518,384.9l-23.28,73.525-3.468-1.491,19.864-78.207s-7.734-21.277-13.422-36.806c-5.462-14.887,1.968-44.384,2.6-46.759l2.974,3.078s-7.8,34.907,2.237,51.5S272.518,384.9,272.518,384.9Z" transform="translate(-32.678 -39.245)" fill="#fff" opacity="0.24" style="isolation:isolate"/><path d="M485.313,284.453h0a34.384,34.384,0,0,1-5.107-1.734,8.844,8.844,0,0,1-4.647-11.618v-.13c2.454-5.549,2.523-13.578,2.3-20.982-.512-17.029-4.821-35.436-5.142-43.135a83.382,83.382,0,0,1,2.02-18.78l2.723-11.523s-2.5,18.693-3.139,23.818,5.2,34.3,7.379,38.531-1.639,29.133-1.127,35.046S485.313,284.453,485.313,284.453Z" transform="translate(-62.848 -23.475)" fill="#fff" opacity="0.24" style="isolation:isolate"/><path d="M537.486,456.892l-3.546,1.734c-.407-2.038-7.994-39.537-18.685-66.71-7.985-20.263-11.835-61.56-13.335-82.646l4.4.867s6.52,53.843,13.682,73.75S537.486,456.892,537.486,456.892Z" transform="translate(-66.735 -41.121)" fill="#fff" opacity="0.24" style="isolation:isolate"/><path d="M537.249,246.958l-11.5,37.031-2.6-.494-.512-.173,10.795-34.682s-14.133-38.965-16.526-50.965a33.615,33.615,0,0,1-.113-12.035,10.4,10.4,0,0,1,8.159-8.471s-7.8,5.436-5.428,17.454C522.63,210.065,537.249,246.958,537.249,246.958Z" transform="translate(-68.648 -23.557)" fill="#fff" opacity="0.24" style="isolation:isolate"/><path d="M506.865,165.011l-17.974,57.017-3.451,3.494,18.225-61.759.069-6.182,2.315,2.367v.009Z" transform="translate(-64.544 -20.952)" fill="#fff" opacity="0.24" style="isolation:isolate"/><path d="M248.055,480.06l-4.985,9.069,5.011,2.87,1.864-1.491,8.081,7.439s2.887,1.994,9.954,1.994,8.462-1.014,8.462-1.014,0-10.4-8.67-9.928-9.269-4.457-9.269-4.457Z" transform="translate(-32.319 -63.829)" fill="#7f21ff"/><path d="M312.315,486.075l-.815,13.4h6.069v-5.029l8.237,5.029,20.367-.052s0-13.873-9.156-13.144-12.85,0-12.85,0l-1.448-1.934Z" transform="translate(-41.417 -64.4)" fill="#7f21ff"/><path d="M548.885,479.035l.867,13.4h-6.069v-5.064l-8.176,5.081-20.367.052s0-13.873,9.1-13.188,12.85,0,12.85,0l1.431-1.942Z" transform="translate(-68.493 -63.472)" fill="#7f21ff"/><path d="M472.307,479.231l.867,13.387H467.1v-5.064l-8.228,5.133-20.367.052s0-13.873,9.1-13.188,12.85,0,12.85,0l1.431-1.942Z" transform="translate(-58.304 -63.504)" fill="#7f21ff"/><path d="M248.055,480.06l-4.985,9.069,5.011,2.87,1.864-1.491,8.081,7.439s2.887,1.994,9.954,1.994,8.462-1.014,8.462-1.014,0-10.4-8.67-9.928-9.269-4.457-9.269-4.457Z" transform="translate(-32.319 -63.829)" fill="url(#u)"/><path d="M312.315,486.075l-.815,13.4h6.069v-5.029l8.237,5.029,20.367-.052s0-13.873-9.156-13.144-12.85,0-12.85,0l-1.448-1.934Z" transform="translate(-41.417 -64.4)" fill="url(#v)"/><path d="M548.885,479.035l.867,13.4h-6.069v-5.064l-8.176,5.081-20.367.052s0-13.873,9.1-13.188,12.85,0,12.85,0l1.431-1.942Z" transform="translate(-68.493 -63.472)" fill="url(#w)"/><path d="M472.307,479.231l.867,13.387H467.1v-5.064l-8.228,5.133-20.367.052s0-13.873,9.1-13.188,12.85,0,12.85,0l1.431-1.942Z" transform="translate(-58.304 -63.504)" fill="url(#x)"/></g></svg>