<svg xmlns="http://www.w3.org/2000/svg" xmlns:xlink="http://www.w3.org/1999/xlink" width="672.26" height="496.887" viewBox="0 0 672.26 496.887"><defs><linearGradient id="a" x1="1.731" y1="-0.048" x2="0.571" y2="0.473" gradientUnits="objectBoundingBox"><stop offset="0"/><stop offset="1" stop-opacity="0"/></linearGradient><linearGradient id="b" x1="-2.985" y1="0.854" x2="1.342" y2="0.469" xlink:href="#a"/><linearGradient id="c" x1="-2.497" y1="1.805" x2="1.348" y2="0.131" xlink:href="#a"/><linearGradient id="d" x1="-1.542" y1="1.024" x2="1.108" y2="0.345" xlink:href="#a"/><linearGradient id="e" x1="-1.551" y1="1.515" x2="0.908" y2="0.298" xlink:href="#a"/><linearGradient id="f" x1="-1.548" y1="1.518" x2="0.911" y2="0.298" xlink:href="#a"/></defs><g transform="translate(0.012 0.03)"><path d="M313.561,8.9a195.829,195.829,0,0,1,52.95,16.076c23.3,11.162,42.529,28.3,64.429,41.64,37.319,22.726,82.008,35.582,124.432,44.478,16.944,3.579,34.1,6.9,49.349,14.974,23.3,12.369,39.988,34.8,51.594,58.584,25.416,52.208,30.054,115.536,7.434,169.121-22.112,52.081-72.626,96.072-130.023,101.663-72.435,7.434-144.849,21.625-217.411,30.6-50.387,7.455-100.986,14.826-151.923,15.482-21.18.233-42.91-.8-63.095-7.646-37.87-12.9-72.075-39.479-86.9-77.434a123.542,123.542,0,0,1,2.9-96.051c8.472-18.405,21.646-34.65,27.809-53.966,5.57-17.452,4.956-35.879,4.109-53.945a134.2,134.2,0,0,1,6.248-49.73C65.5,129.939,81.324,98.571,103.669,72.478,131.2,40.178,169.114,15.991,210.86,8.2a255.239,255.239,0,0,1,48.9-3.452,349.282,349.282,0,0,1,53.8,4.151Z" transform="translate(-6.08 -4.69)" fill="#7f21ff" opacity="0.18" style="isolation:isolate"/><path d="M98.014,184.162a14.508,14.508,0,0,0,1.165,6.184,10.357,10.357,0,0,0,4.49,4.236,17.855,17.855,0,0,0,13.153,1.292,2.648,2.648,0,0,0,1.525-.911,2.33,2.33,0,0,0,.254-1.313,9.721,9.721,0,0,0-3.431-6.184,21.33,21.33,0,0,1-4.744-5.422c-2.118-4.067-.508-14.826-8.175-13.174C95.854,170.2,97.844,179.566,98.014,184.162Z" transform="translate(96.24 178.704)" fill="#ffbaa8"/><path d="M97.508,179.6s-1.08,2.669.254,4.236,15.1,10.124,24.378,3.24-12.581-7.794-12.581-7.794Z" transform="translate(95.687 190.533)" fill="#7f21ff"/><path d="M97.964,177.017a1.97,1.97,0,0,1,2.478.657,8.069,8.069,0,0,0,7.371,2.563c3.008-.72,4.236-4.236,5.719-4.236s9.531,6.82,9.976,9.743-3.643,5.083-8.175,5.359-14.826-2.838-16.711-5.231A9.594,9.594,0,0,1,97.964,177.017Z" transform="translate(95.782 186.866)" fill="#fff"/><path d="M85.6,186.138a14.509,14.509,0,0,0,1.165,6.185,10.294,10.294,0,0,0,4.511,4.236,17.791,17.791,0,0,0,13.132,1.292,2.647,2.647,0,0,0,1.567-1,2.33,2.33,0,0,0,.254-1.313,9.722,9.722,0,0,0-3.431-6.185,21.33,21.33,0,0,1-4.744-5.422c-2.012-4.067-.508-14.826-8.175-13.153C83.442,172.265,85.433,181.627,85.6,186.138Z" transform="translate(82.367 180.837)" fill="#ffbaa8"/><path d="M85.1,181.578s-1.08,2.669.254,4.236,15.1,10.124,24.378,3.24-12.581-7.794-12.581-7.794Z" transform="translate(81.812 192.746)" fill="#7f21ff"/><path d="M85.559,179a1.948,1.948,0,0,1,2.478.635,8.091,8.091,0,0,0,7.371,2.605c3.008-.72,4.236-4.236,5.74-4.236s9.51,6.82,9.955,9.743-3.643,5.083-8.175,5.359S88.1,190.263,86.216,187.87A9.552,9.552,0,0,1,85.559,179Z" transform="translate(81.902 189.102)" fill="#fff"/><path d="M82.883,125.034s-1.44,78.726,4.384,104.989l14.826,1.821L112.344,124.06Z" transform="translate(79.622 128.797)" fill="#473f47"/><path d="M118.4,120.46s6.968,42.36-1.483,110.665l-14.826,1.843L91.84,125.162Z" transform="translate(89.812 124.773)" fill="#473f47"/><path d="M131.483,126.719c0,1.419.191,2.859.191,4.236,0,7.858-1.822,15.948.529,23.658a8.6,8.6,0,0,1,.635,5.253,6.354,6.354,0,0,1-3.283,3.156c-6.926,3.791-14.826,4.956-22.747,6.057-5.867.826-14.212,2.563-19.634-.593a9.849,9.849,0,0,1-3.855-6.354,120.724,120.724,0,0,1-3.664-24.78c0-1.1-.148-2.118-.212-3.262-.445-7.54-.614-15.059-.466-22.578,0-5.464.551-11.374,4.109-15.5,4.744-5.486,13.915-9.129,20.883-10.4a23.487,23.487,0,0,1,6.883-.339,29.165,29.165,0,0,1,9.277,3.156c3.474,1.716,6.545,3.156,8.239,6.566a46.872,46.872,0,0,1,3.876,12.475,45.389,45.389,0,0,1,.212,12.221c-.212,1.991-.72,3.961-.911,5.951C131.5,126,131.5,126.359,131.483,126.719Z" transform="translate(75.373 85.304)" fill="#fff"/><path d="M102.742,90.392l20.735,11.056L167.362,85.86l7.625,18.765s-40.242,20.587-48.015,20.672-28.212-5.57-28.212-5.57Z" transform="translate(97.548 86.09)" fill="#fff"/><path d="M117.358,102.948c-2.351-.275-14.106-6.121-15.4-7.1,1.8,3.791,4.236,15.567,4.638,15.8a38.272,38.272,0,0,0,14.191,3.918,28.551,28.551,0,0,0,14.4-2.711,71.017,71.017,0,0,1,6.8-3.495c1.4-.53,2.859-.826,4.236-1.292a40.982,40.982,0,0,0,10.23-5.655,4.088,4.088,0,0,0,2.118-2.52c.212-1.4-1.038-2.584-2.309-3.2a15.842,15.842,0,0,0-6.354-1.334,28.8,28.8,0,0,0-8.641.191c-1.8.508-3.135,2.118-4.893,2.986C131.294,100.766,122.864,103.583,117.358,102.948Z" transform="translate(101.126 96.452)" fill="#020202" opacity="0.1"/><path d="M100.367,165.4c-2.287.657-7.54-1.419-9.277-1.737a26.816,26.816,0,0,1-3.029-.953c-5.21-1.292-5.824-15.906-6.354-19.846-1.356-10.4-3.431-21.18-3.558-31.6a35.117,35.117,0,0,1,1.377-11.9,13.809,13.809,0,0,1,7.815-8.684,3.939,3.939,0,0,1,2.309-.233c3.156.8,3.812,6.036,4.363,8.472.953,4.448,3.113,6.481,5.316,10.039s2.351,8.006,4.448,11.67a8.472,8.472,0,0,0,2.118,2.669,9.616,9.616,0,0,0,5.93,1.25h14.953a4.723,4.723,0,0,1,3.41.847,4.893,4.893,0,0,1,.89,4.024l-.911,11.056a2.521,2.521,0,0,1-.36,1.377,2.648,2.648,0,0,1-1.61.784,40.05,40.05,0,0,0-11.8,3.622,68.245,68.245,0,0,1-11.479,6.354,11.014,11.014,0,0,0-3.135,2.118,6.9,6.9,0,0,0-1.5,4.723c0,1.08,1.377,4.405.974,5.189a1.5,1.5,0,0,1-.89.762Z" transform="translate(74.443 91.125)" fill="#020202" opacity="0.1"/><path d="M106.349,93.657a4.956,4.956,0,0,1-3.2,1.61,16.8,16.8,0,0,1-3.092,0h-.572a.7.7,0,0,0-.424,0,.614.614,0,0,0-.191.466,35.45,35.45,0,0,0,0,6.185h0v1.123a2.117,2.117,0,0,1,0,1.165,1.969,1.969,0,0,1-1.25.8,9.129,9.129,0,0,1-2.8.487,12.327,12.327,0,0,1-5.761-1.906A56.427,56.427,0,0,0,88.516,93c-.657-4.511-1.843-9.023-1.356-13.555a8.726,8.726,0,0,1,1.906-4.85,8.875,8.875,0,0,1,6.714-2.415,17.2,17.2,0,0,1,9.213,2.52c1.017.7,1.122,1.588,1.356,2.732.36,1.779.635,3.579.847,5.38s.339,4.109.381,6.185A6.947,6.947,0,0,1,106.349,93.657Z" transform="translate(84.452 70.774)" fill="#ffbaa8"/><path d="M110.646,80.872c-2.118.572-4.85,0-6.989.932a6.841,6.841,0,0,0-3.346,8.324c-.868.318-1.038-1.271-1.716-1.906s-2.118.212-2.309,1.313a6.842,6.842,0,0,0,.953,3.135,9.34,9.34,0,0,1,.424,6.163c-.148.487-.508,1.059-.974.932s-.826-.953-1.123-1.313a13.517,13.517,0,0,0-1.546-1.567c-1.059-.932-2.245-1.758-3.346-2.669S89.17,92.436,87.9,92.1a24.164,24.164,0,0,0-3.643-.445,5.274,5.274,0,0,1-2.542-9.086,3.664,3.664,0,0,0,1.038-1.1,3.346,3.346,0,0,0,.127-1.525,8.091,8.091,0,0,1,3.77-6.672,13.767,13.767,0,0,1,7.582-2.118,4.616,4.616,0,0,0,1.716-.212,5.273,5.273,0,0,0,1.377-1.017,10.018,10.018,0,0,1,15.25,2.817,7.328,7.328,0,0,1,.953,4.829A3.77,3.77,0,0,1,110.646,80.872Z" transform="translate(76.554 65.62)" fill="#ff681c"/><path d="M96.859,84.218h-.572a.7.7,0,0,0-.424,0,.614.614,0,0,0-.191.466,35.455,35.455,0,0,0,0,6.184h0A8.281,8.281,0,0,1,89.955,82.1a35.139,35.139,0,0,0,6.968,2.118Z" transform="translate(87.651 81.887)" fill="#e0a091"/><rect width="22.451" height="52.844" rx="5.3" transform="translate(149.77 185.815) rotate(-19.53)" fill="#fff"/><path d="M365.431,134.15C356.344,304.478,242.354,349,242.354,349,115.8,273.6,116.44,126.356,116.44,126.356c80.653-21.773,126.783-66.314,128.223-67.776h0C274.738,102.4,365.431,134.15,365.431,134.15Z" transform="translate(117.314 55.592)" fill="#7f21ff"/><path d="M365.431,133.785c-9.086,170.328-123.076,214.849-123.076,214.849C115.8,273.233,116.44,125.991,116.44,125.991c80.7-21.731,126.825-66.208,128.265-67.691h0C274.738,102.142,365.431,133.785,365.431,133.785Z" transform="translate(117.314 55.279)" fill="url(#a)"/><path d="M115.5,105.75a32.451,32.451,0,0,0,3.008-2.5,31.073,31.073,0,0,1,7.709-5.1A14.953,14.953,0,0,1,135.257,97c.657.127,1.44.529,1.356,1.207s-.466.72-.868.932a28.7,28.7,0,0,1-5.613,2.372,3.123,3.123,0,0,0-2.118,1.313,4.236,4.236,0,0,0,1.927-.233,21.18,21.18,0,0,1,7.392-.529c.233,0,.508,0,.635.3a.637.637,0,0,1-.381.826c-2.372,1.885-5.93,1.758-8.2,3.791-.4.339-.7,1.059-.254,1.334a.89.89,0,0,0,.572,0,17.572,17.572,0,0,0,2.9-.572,14.148,14.148,0,0,1,4.723-.127.784.784,0,0,1,.551.254c.233.36-.254.763-.635.953l-8.2,3.579a20.022,20.022,0,0,0,3.389,0,4.659,4.659,0,0,1,3.177,1.017.233.233,0,0,1,.127.191c0,.148,0,.233-.233.3a10.928,10.928,0,0,1-4.236,1.271,13.155,13.155,0,0,0-2.605.466,12.059,12.059,0,0,0-1.5.678,16.288,16.288,0,0,1-5.041,1.694,8.07,8.07,0,0,1-5.168-.847,7.9,7.9,0,0,0-1.334-.678c-1.694-.466-3.579,1.292-5.147.466a3.663,3.663,0,0,1-1.228-1.419c-.847-1.4-3.685-5.3-1.4-6.587a34.2,34.2,0,0,1,3.939-1.271,18.07,18.07,0,0,0,3.707-1.927Z" transform="translate(106.736 98.266)" fill="#ffbaa8"/><path d="M104.852,104.55l28.042-2.69,4.533,13.682s-40.983,16.669-48.947,12.03-.572-12.2-.572-12.2S88.84,104.274,104.852,104.55Z" transform="translate(81.925 103.978)" fill="#fff"/><path d="M342.9,133.276C334.869,283.4,234.412,322.645,234.412,322.645,122.879,256.183,123.43,126.414,123.43,126.414c71.1-19.189,111.745-58.456,113.016-59.664h0C262.921,105.4,342.9,133.276,342.9,133.276Z" transform="translate(125.129 64.726)" fill="#7f21ff"/><path d="M236.5,66.74l-2.118,255.916C122.849,256.194,123.4,126.425,123.4,126.425c71.1-19.189,111.745-58.456,113.016-59.664Z" transform="translate(125.095 64.714)" fill="url(#b)"/><circle cx="19.676" cy="19.676" r="19.676" transform="translate(339.865 221.49)" fill="#473f47"/><path d="M164.16,153.656h21.2l-6.015-31.516h-7.731Z" transform="translate(183.542 136.584)" fill="#473f47"/><path d="M119.88,120.143h25.31V101.78h20.057" transform="translate(134.037 113.822)" fill="none" stroke="#fff" stroke-miterlimit="10" stroke-width="0.96" opacity="0.18" style="isolation:isolate"/><path d="M122.22,119.74h32.956v40.072h20.629" transform="translate(136.653 133.901)" fill="none" stroke="#fff" stroke-miterlimit="10" stroke-width="0.96" opacity="0.18" style="isolation:isolate"/><path d="M261.67,117.048H219.945V93.39H182.69" transform="translate(204.258 104.442)" fill="none" stroke="#fff" stroke-miterlimit="10" stroke-width="0.96" opacity="0.18" style="isolation:isolate"/><path d="M252.89,123.14H212.246V164.8H183.59" transform="translate(205.264 137.702)" fill="none" stroke="#fff" stroke-miterlimit="10" stroke-width="0.96" opacity="0.18" style="isolation:isolate"/><path d="M141.3,166.212h34.1V150.2h20.629" transform="translate(157.985 167.955)" fill="none" stroke="#fff" stroke-miterlimit="10" stroke-width="0.96" opacity="0.18" style="isolation:isolate"/><path d="M140.489,92.975a2.309,2.309,0,0,0,2.393-.487c.932-1.08.191-2.711-.572-3.918.72-.551,1.758.148,2.309.89s1.207,1.631,2.118,1.525,1.419-1.356,1.186-2.287a13.767,13.767,0,0,0-1.377-2.584c.4-.551,1.292,0,1.652.529s.847,1.334,1.5,1.186a1.186,1.186,0,0,0,.657-1.4,11.8,11.8,0,0,1-.36-1.673c1.122-.36,2.415.8,3.452.254a1.61,1.61,0,0,0,.212-2.393,4.236,4.236,0,0,0-2.457-1.165,10.59,10.59,0,0,0-6.778.8c-2.436.974-4.977,1.483-7.349,2.711a14.466,14.466,0,0,0-5.613,4.236.953.953,0,0,0,.275,1.25,1.525,1.525,0,0,0,.974,0,7.222,7.222,0,0,1,4.914.826,23.15,23.15,0,0,0,2.5,1.525Z" transform="translate(133.973 80.903)" fill="#ffbaa8"/><path d="M557.408,138.591C534.364,89.454,428.38,52.22,301.512,52.22,157.828,52.22,41,99.959,41,158.649S157.892,265.078,301.512,265.078c97.936,0,183.418-22.175,227.938-54.877a108.231,108.231,0,0,0,17.537-15.843,59.091,59.091,0,0,0,14.127-26.475,45.132,45.132,0,0,0,.974-9.234A46.85,46.85,0,0,0,557.408,138.591Zm-12.475,55.576a106.646,106.646,0,0,1-15.038,13.64c-43.588,33-129.621,55.491-228.425,55.491-142.689,0-258.8-46.935-258.8-104.65S158.781,53.978,301.512,53.978c125.258,0,230.013,36.175,253.756,84.042a46.087,46.087,0,0,1,5.041,20.629,40.242,40.242,0,0,1-.678,7.477C557.895,175.91,552.854,185.314,544.933,194.167Z" transform="translate(32.973 48.481)" fill="#fff"/><path d="M565.329,153.82a46.358,46.358,0,0,0-.763-5.1,51.837,51.837,0,0,0-2.711-8.79l-.381-.127c-1.334-.424-2.711-.8-4.067-1.207C534.364,89.454,428.38,52.22,301.512,52.22,157.828,52.22,41,99.959,41,158.649S157.892,265.078,301.512,265.078c97.936,0,183.418-22.175,227.938-54.877a4.808,4.808,0,0,0,1.207,3.516,108.652,108.652,0,0,0,21.54-20.057,62.459,62.459,0,0,0,11.268-20.82,48.377,48.377,0,0,0,2.118-14.169A46.111,46.111,0,0,0,565.329,153.82ZM301.512,263.3c-142.689,0-258.8-46.935-258.8-104.65S158.781,53.978,301.512,53.978c125.258,0,230.013,36.175,253.756,84.042a5.168,5.168,0,0,0-3.6.614,43.438,43.438,0,0,1,5.1,20.015,40.736,40.736,0,0,1-.3,4.829c-1.25,10.209-6.354,20.206-15.25,29.652a95.9,95.9,0,0,1-10.759,9.849,5.1,5.1,0,0,1,0,2.775c-.191.678-.4,1.355-.593,2.118C486.307,240.806,400.274,263.3,301.512,263.3Z" transform="translate(32.973 48.481)" fill="#7f21ff" opacity="0.18" style="isolation:isolate"/><path d="M554.376,137.092a5.168,5.168,0,0,0-3.6.614C541.033,118.835,517.5,101.3,482.2,87.023,433.672,67.41,369.18,56.608,300.663,56.608s-133.073,10.8-181.6,30.414c-47.549,19.21-73.706,44.287-73.706,70.7s26.157,51.467,73.664,70.677c48.523,19.634,113.016,30.435,181.6,30.435S433.672,248.032,482.2,228.4c19.507-7.879,35.392-16.732,47.379-26.327a5.1,5.1,0,0,1,0,2.775c-.191.678-.4,1.355-.593,2.118-43.588,33-129.621,55.491-228.425,55.491-142.689,0-258.8-46.935-258.8-104.65S157.932,53.05,300.663,53.05C425.878,53.05,530.634,89.225,554.376,137.092Z" transform="translate(33.823 49.409)" fill="#7f21ff" opacity="0.18" style="isolation:isolate"/><path d="M563.756,141.793l-.381-.127c-1.334-.424-2.711-.8-4.067-1.207-23.044-49.137-129.028-86.371-255.9-86.371C159.729,54.087,42.9,101.826,42.9,160.516S159.792,266.945,303.413,266.945c97.936,0,183.418-22.175,227.938-54.877a4.808,4.808,0,0,0,1.207,3.516,210.656,210.656,0,0,1-43.652,23.446c-49.709,20.29-115.6,31.452-185.493,31.452S167.587,259.32,117.92,239.03c-50.7-20.714-78.62-48.608-78.62-78.514s27.873-57.8,78.577-78.493C167.544,61.712,233.519,50.55,303.413,50.55S439.24,61.712,488.906,82.023C528.809,98.332,554.606,119.088,563.756,141.793Z" transform="translate(31.072 46.614)" fill="#7f21ff" opacity="0.18" style="isolation:isolate"/><ellipse cx="203.814" cy="33.591" rx="203.814" ry="33.591" transform="translate(119.171 349.946)" fill="#7f21ff" opacity="0.35" style="isolation:isolate"/><path d="M225.89,83.2" transform="translate(239.678 83.117)" fill="#fff"/><path d="M157.671,95.093H107.75V33.46h43.037l6.883,8.79Z" transform="translate(120.476 37.441)" fill="#fff"/><path d="M155.581,96.813H105.66V35.18H148.7l6.883,8.79Z" transform="translate(118.14 39.364)" fill="#fff"/><path d="M155.381,97.013H105.46V35.38H148.5l6.883,8.79Z" transform="translate(117.916 39.588)" fill="url(#c)"/><path d="M153.311,99.435H103.39V37.78h43.037l6.883,8.79Z" transform="translate(115.602 42.271)" fill="#fff"/><path d="M123.71,37.78v8.7h6.883Z" transform="translate(138.319 42.271)" fill="url(#d)"/><path d="M125.78,35.38v8.959h6.883Z" transform="translate(140.633 39.588)" fill="url(#e)"/><path d="M128.07,33.46v8.959h6.883Z" transform="translate(143.194 37.441)" fill="url(#f)"/><g transform="translate(542.431 185.479)"><path d="M314.6,169.072a4.978,4.978,0,0,1-3.135-2.436c-.508-.868-.974-1.779-1.483-2.647a4.6,4.6,0,0,0-4.808-2.478,4.7,4.7,0,0,0-4.236,3.474c-.318,1.038-.572,2.118-.932,3.113a5.126,5.126,0,0,1-6.354,3.368l-5.824-1.716a5.168,5.168,0,0,1-3.6-6.481c.275-1.059.635-2.118.89-3.135a4.575,4.575,0,0,0-1.715-5.02,4.469,4.469,0,0,0-5.189-.508c-.911.445-1.779.974-2.669,1.44a5.274,5.274,0,0,1-7.222-2.118c-1.017-1.843-2.118-3.664-3.029-5.507a5.1,5.1,0,0,1,2.118-7.18c.847-.487,1.737-.911,2.563-1.4a4.874,4.874,0,0,0-.826-8.853c-1.017-.339-2.118-.593-3.114-.932a5.168,5.168,0,0,1-3.537-6.778c.529-1.843,1.059-3.685,1.61-5.528a5.083,5.083,0,0,1,6.079-3.664c1.1.212,2.118.572,3.241.868A4.85,4.85,0,0,0,279.1,107.8c-.466-.826-.932-1.652-1.355-2.478a5.041,5.041,0,0,1,2.118-6.883c1.97-1.122,3.961-2.118,5.994-3.219a5.274,5.274,0,0,1,6.9,2.118c.53.911,1,1.843,1.525,2.753a4.511,4.511,0,0,0,4.66,2.351,4.575,4.575,0,0,0,4.13-3.346c.318-.953.572-1.949.868-2.9a5.253,5.253,0,0,1,6.841-3.643l5.422,1.589a5.232,5.232,0,0,1,3.749,6.608c-.254.932-.551,1.885-.826,2.817a4.638,4.638,0,0,0,1.588,5.253,4.7,4.7,0,0,0,5.486.445c.826-.445,1.652-.932,2.478-1.356a5.274,5.274,0,0,1,7.159,2.118c1.059,1.885,2.118,3.791,3.135,5.7a5.1,5.1,0,0,1-2.118,7.032c-.911.508-1.864.953-2.775,1.483a4.427,4.427,0,0,0-2.372,4.236,4.511,4.511,0,0,0,2.9,4.236,33.629,33.629,0,0,0,3.3,1.038,4.766,4.766,0,0,1,3.474,6.163q-.826,3.177-1.843,6.354a4.893,4.893,0,0,1-6.46,3.368c-.974-.275-1.927-.593-2.923-.826a4.532,4.532,0,0,0-4.893,1.779,4.405,4.405,0,0,0-.445,5.1c.487.932,1.038,1.843,1.525,2.753a5.125,5.125,0,0,1-2.118,7.053c-1.885,1.059-3.791,2.118-5.7,3.113a5.062,5.062,0,0,1-3.939.466Zm-28.614-41.851a16.732,16.732,0,1,0,8.065-10,16.774,16.774,0,0,0-8.065,10Z" transform="translate(-262.181 -92.248)" fill="#7f21ff"/></g><g transform="translate(542.431 185.479)" opacity="0.27"><path d="M314.6,169.072a4.978,4.978,0,0,1-3.135-2.436c-.508-.868-.974-1.779-1.483-2.647a4.6,4.6,0,0,0-4.808-2.478,4.7,4.7,0,0,0-4.236,3.474c-.318,1.038-.572,2.118-.932,3.113a5.126,5.126,0,0,1-6.354,3.368l-5.824-1.716a5.168,5.168,0,0,1-3.6-6.481c.275-1.059.635-2.118.89-3.135a4.575,4.575,0,0,0-1.715-5.02,4.469,4.469,0,0,0-5.189-.508c-.911.445-1.779.974-2.669,1.44a5.274,5.274,0,0,1-7.222-2.118c-1.017-1.843-2.118-3.664-3.029-5.507a5.1,5.1,0,0,1,2.118-7.18c.847-.487,1.737-.911,2.563-1.4a4.874,4.874,0,0,0-.826-8.853c-1.017-.339-2.118-.593-3.114-.932a5.168,5.168,0,0,1-3.537-6.778c.529-1.843,1.059-3.685,1.61-5.528a5.083,5.083,0,0,1,6.079-3.664c1.1.212,2.118.572,3.241.868A4.85,4.85,0,0,0,279.1,107.8c-.466-.826-.932-1.652-1.355-2.478a5.041,5.041,0,0,1,2.118-6.883c1.97-1.122,3.961-2.118,5.994-3.219a5.274,5.274,0,0,1,6.9,2.118c.53.911,1,1.843,1.525,2.753a4.511,4.511,0,0,0,4.66,2.351,4.575,4.575,0,0,0,4.13-3.346c.318-.953.572-1.949.868-2.9a5.253,5.253,0,0,1,6.841-3.643l5.422,1.589a5.232,5.232,0,0,1,3.749,6.608c-.254.932-.551,1.885-.826,2.817a4.638,4.638,0,0,0,1.588,5.253,4.7,4.7,0,0,0,5.486.445c.826-.445,1.652-.932,2.478-1.356a5.274,5.274,0,0,1,7.159,2.118c1.059,1.885,2.118,3.791,3.135,5.7a5.1,5.1,0,0,1-2.118,7.032c-.911.508-1.864.953-2.775,1.483a4.427,4.427,0,0,0-2.372,4.236,4.511,4.511,0,0,0,2.9,4.236,33.629,33.629,0,0,0,3.3,1.038,4.766,4.766,0,0,1,3.474,6.163q-.826,3.177-1.843,6.354a4.893,4.893,0,0,1-6.46,3.368c-.974-.275-1.927-.593-2.923-.826a4.532,4.532,0,0,0-4.893,1.779,4.405,4.405,0,0,0-.445,5.1c.487.932,1.038,1.843,1.525,2.753a5.125,5.125,0,0,1-2.118,7.053c-1.885,1.059-3.791,2.118-5.7,3.113a5.062,5.062,0,0,1-3.939.466Zm-28.614-41.851a16.732,16.732,0,1,0,8.065-10,16.774,16.774,0,0,0-8.065,10Z" transform="translate(-262.181 -92.248)" fill="#020202"/></g><g transform="translate(540.421 186.49)"><path d="M336.988,134.163c-1.08-.339-2.224-.593-3.283-1.038a4.511,4.511,0,0,1-2.9-4.236,4.448,4.448,0,0,1,2.393-4.236c.89-.508,1.843-.974,2.753-1.483a5.1,5.1,0,0,0,2.118-7.032c-1.017-1.906-2.118-3.812-3.135-5.676a5.274,5.274,0,0,0-7.159-2.118L325.3,109.7a4.7,4.7,0,0,1-5.486-.424c-.233-.212-.445-.424-.657-.657a4.6,4.6,0,0,1-.932-4.617,1.487,1.487,0,0,1,.169-.487c.212-.784.445-1.546.635-2.33a5.168,5.168,0,0,0-3.346-6.46L315.3,94.6c-1.334-.424-2.711-.8-4.067-1.207l-1.377-.4-.8-.169a5.168,5.168,0,0,0-3.6.614,5.4,5.4,0,0,0-2.351,3.113c-.318.974-.572,1.949-.868,2.923A4.617,4.617,0,0,1,298,102.8a4.532,4.532,0,0,1-4.66-2.33c-.551-.911-1-1.843-1.525-2.775a5.231,5.231,0,0,0-6.883-2.118c-2.118,1-4.045,2.118-6.015,3.2a5.041,5.041,0,0,0-2.118,6.883c.424.847.911,1.652,1.356,2.478a4.863,4.863,0,0,1-5.676,7.18,33.228,33.228,0,0,0-3.241-.89,5.083,5.083,0,0,0-6.079,3.664c-.53,1.843-1.08,3.685-1.61,5.549a5.147,5.147,0,0,0,3.558,6.756c1.017.36,2.118.572,3.092.932a4.638,4.638,0,0,1,3.283,4.236,4.511,4.511,0,0,1-2.436,4.617c-.847.487-1.737.932-2.584,1.4a5.1,5.1,0,0,0-2.118,7.18c1,1.843,2.012,3.685,3.029,5.507a5.316,5.316,0,0,0,7.222,2.118c.889-.487,1.758-1,2.669-1.461a4.511,4.511,0,0,1,5.189.508,4.85,4.85,0,0,1,1.673,2.266,5.1,5.1,0,0,1,0,2.775c-.191.678-.4,1.356-.593,2.118l-.318,1.08a5.57,5.57,0,0,0,1.038,4.829,5.082,5.082,0,0,0,2.563,1.673l5.824,1.694a5.147,5.147,0,0,0,6.354-3.368c.36-1.017.614-2.118.932-3.113a4.744,4.744,0,0,1,4.236-3.474,4.617,4.617,0,0,1,4.787,2.478c.508.868.974,1.779,1.461,2.669a5.337,5.337,0,0,0,7.116,2.118c1.906-1.038,3.812-2.118,5.7-3.113a5.1,5.1,0,0,0,2.118-7.032c-.508-.932-1.059-1.821-1.525-2.753a4.363,4.363,0,0,1,.424-5.1,4.575,4.575,0,0,1,4.893-1.8c1,.233,1.949.572,2.923.847a4.871,4.871,0,0,0,6.354-3.368c.7-2.118,1.313-4.236,1.864-6.354a4.787,4.787,0,0,0-3.283-6.333ZM317.291,137a16.944,16.944,0,0,1-16.563,12.073,12.708,12.708,0,0,1-2.012-.191,17.328,17.328,0,0,1-2.266-.487,12.345,12.345,0,0,1-1.483-.529,16.753,16.753,0,0,1,10.971-31.622,16.37,16.37,0,0,1,4.236,1.949,14.822,14.822,0,0,1,3.156,2.647,14.492,14.492,0,0,1,1.483,1.758,17.179,17.179,0,0,1,2.393,4.935A16.542,16.542,0,0,1,317.291,137Z" transform="translate(-261.232 -92.725)" fill="#7f21ff"/></g></g></svg>