<svg xmlns="http://www.w3.org/2000/svg" width="51.994" height="39.995" viewBox="0 0 51.994 39.995"><path d="M3.2,0h0A3.2,3.2,0,0,1,6.4,3.2V19.736a2.85,2.85,0,0,1-2.85,2.85H3.2a3.2,3.2,0,0,1-3.2-3.2V3.2A3.2,3.2,0,0,1,3.2,0Z" transform="translate(0 8.705)" fill="#fff"/><path d="M3.2,0h0A3.2,3.2,0,0,1,6.4,3.2V37.145A2.85,2.85,0,0,1,3.551,40H3.2a3.2,3.2,0,0,1-3.2-3.2V3.2A3.2,3.2,0,0,1,3.2,0Z" transform="translate(34.194)" fill="#fff"/><path d="M3.2,0h0A3.2,3.2,0,0,1,6.4,3.2V37.145A2.85,2.85,0,0,1,3.551,40H3.2a3.2,3.2,0,0,1-3.2-3.2V3.2A3.2,3.2,0,0,1,3.2,0Z" transform="translate(11.398)" fill="#fff"/><path d="M3.2,0h0A3.2,3.2,0,0,1,6.4,3.2V19.736a2.85,2.85,0,0,1-2.85,2.85H3.2a3.2,3.2,0,0,1-3.2-3.2V3.2A3.2,3.2,0,0,1,3.2,0Z" transform="translate(45.592 8.705)" fill="#fff"/><path d="M3.2,0h0A3.2,3.2,0,0,1,6.4,3.2V19.232a2.85,2.85,0,0,1-2.85,2.85H3.2a3.2,3.2,0,0,1-3.2-3.2V3.2A3.2,3.2,0,0,1,3.2,0Z" transform="translate(22.796 9.914)" fill="#fff"/></svg>