<?xml version="1.0" encoding="utf-8"?>
<!-- Generator: Adobe Illustrator 24.1.2, SVG Export Plug-In . SVG Version: 6.00 Build 0)  -->
<svg version="1.1" id="Layer_1" xmlns="http://www.w3.org/2000/svg" xmlns:xlink="http://www.w3.org/1999/xlink" x="0px" y="0px"
	 viewBox="0 0 213 50.1" style="enable-background:new 0 0 213 50.1;" xml:space="preserve">
<style type="text/css">
	.st0{fill:#FFFFFF;}
	.st1{enable-background:new    ;}
</style>
<g transform="translate(-1178 -606)">
	<g transform="translate(1178 606)">
		<path class="st0" d="M3.9,10.9h0.3c2.1,0,3.9,1.7,3.9,3.9v21c0,1.9-1.5,3.4-3.4,3.4H3.9c-2.1,0-3.9-1.7-3.9-3.9l0,0V14.8
			C0,12.6,1.7,10.9,3.9,10.9z"/>
		<path class="st0" d="M46.7,0H47c2.1,0,3.9,1.7,3.9,3.9v42.8c0,1.9-1.5,3.4-3.4,3.4h-0.7c-2.1,0-3.9-1.7-3.9-3.9V3.9
			C42.8,1.7,44.5,0,46.7,0z"/>
		<path class="st0" d="M18.1,0h0.3c2.1,0,3.9,1.7,3.9,3.9v42.8c0,1.9-1.5,3.4-3.4,3.4h-0.7c-2.1,0-3.9-1.7-3.9-3.9V3.9
			C14.3,1.7,16,0,18.1,0z"/>
		<path class="st0" d="M60.9,10.9h0.3c2.1,0,3.9,1.7,3.9,3.9v21c0,1.9-1.5,3.4-3.4,3.4H61c-2.1,0-3.9-1.7-3.9-3.9l0,0V14.8
			C57.1,12.6,58.8,10.9,60.9,10.9z"/>
		<path class="st0" d="M32.4,12.4h0.3c2.1,0,3.9,1.7,3.9,3.9v20.3c0,1.9-1.5,3.4-3.4,3.4h-0.7c-2.1,0-3.9-1.7-3.9-3.9l0,0V16.3
			C28.5,14.1,30.3,12.4,32.4,12.4z"/>
	</g>
	<g class="st1">
		<path class="st0" d="M1270.8,632.9v-14.1h5.8v13.9c0,4.8,2.1,6.8,5.6,6.8c3.6,0,5.6-2,5.6-6.8v-13.9h5.8v14.1
			c0,7.4-4.2,11.5-11.4,11.5S1270.8,640.3,1270.8,632.9z"/>
		<path class="st0" d="M1318.8,632.9V644h-5.6v-10.2c0-3.1-1.4-4.6-3.9-4.6c-2.7,0-4.6,1.7-4.6,5.2v9.6h-5.6v-19.4h5.4v2.3
			c1.5-1.7,3.8-2.6,6.4-2.6C1315.3,624.3,1318.8,627,1318.8,632.9z"/>
		<path class="st0" d="M1323.2,618.8c0-1.8,1.4-3.1,3.5-3.1s3.5,1.3,3.5,3c0,1.9-1.4,3.2-3.5,3.2S1323.2,620.6,1323.2,618.8z
			 M1323.8,624.6h5.6V644h-5.6V624.6z"/>
		<path class="st0" d="M1340.8,625.1h5v4.3h-4.8V644h-5.6v-14.6h-3v-4.3h3v-0.9c0-4.4,2.7-7.2,7.5-7.2c1.6,0,3.2,0.3,4.3,1l-1.5,4.1
			c-0.6-0.4-1.4-0.7-2.3-0.7c-1.7,0-2.6,0.9-2.6,2.8V625.1z"/>
		<path class="st0" d="M1368.2,624.6l-8.7,20.6c-1.9,4.7-4.5,6.1-8,6.1c-2,0-4.1-0.6-5.4-1.8l2.1-4c0.9,0.8,2.1,1.2,3.2,1.2
			c1.5,0,2.4-0.7,3.2-2.4l0.1-0.2l-8.4-19.5h5.8l5.4,13.1l5.5-13.1L1368.2,624.6L1368.2,624.6z"/>
		<path class="st0" d="M1388.8,635.9h-14.7c0.5,2.4,2.6,3.9,5.5,3.9c2.1,0,3.5-0.6,4.9-1.9l3,3.2c-1.8,2.1-4.5,3.1-8,3.1
			c-6.7,0-11.1-4.2-11.1-10s4.4-10,10.3-10c5.7,0,10.1,3.8,10.1,10C1388.9,634.8,1388.8,635.4,1388.8,635.9z M1374.1,632.6h9.5
			c-0.4-2.4-2.2-4-4.8-4C1376.3,628.6,1374.5,630.1,1374.1,632.6z"/>
	</g>
</g>
</svg>
